<svg width="540" height="197" viewBox="0 0 540 197" fill="none" xmlns="http://www.w3.org/2000/svg">
<path d="M345.708 0.5V6.76816H347.708V0.5H345.708ZM439.798 101.638L443.61 101.669L443.627 99.6694L439.814 99.638L439.798 101.638ZM443.61 101.669C492.491 102.073 531.903 141.813 531.903 190.695H533.903C533.903 140.714 493.605 100.082 443.627 99.6694L443.61 101.669ZM345.708 6.76816C345.708 58.8593 387.708 101.208 439.798 101.638L439.814 99.638C388.823 99.2168 347.708 57.7612 347.708 6.76816H345.708Z" fill="#0082E8"/>
<path d="M427.767 196.313L434.589 189.491H420.945L427.767 196.313Z" fill="#0082E8"/>
<path d="M532.903 196.313L539.725 189.491H526.081L532.903 196.313Z" fill="#0082E8"/>
<path d="M427.767 189.892V101.61" stroke="#0082E8" stroke-width="2"/>
<path d="M111.76 192.099C111.76 192.651 112.208 193.099 112.76 193.099C113.313 193.099 113.76 192.651 113.76 192.099H111.76ZM111.76 1.28918V192.099H113.76V1.28918H111.76Z" fill="#0082E8"/>
<path d="M111.76 14.7321V88.7688H113.76V14.7321H111.76ZM165.73 142.738H169.141V140.738H165.73V142.738ZM169.141 142.738C195.959 142.738 217.699 164.478 217.699 191.297H219.699C219.699 163.374 197.063 140.738 169.141 140.738V142.738ZM111.76 88.7688C111.76 118.575 135.923 142.738 165.73 142.738V140.738C137.028 140.738 113.76 117.471 113.76 88.7688H111.76Z" fill="#0082E8"/>
<path d="M112.76 15.334V15.334C112.76 59.2411 148.354 94.8348 192.261 94.8348H225.567C279.396 94.8348 323.032 138.471 323.032 192.3V192.3" stroke="#0082E8" stroke-width="2" stroke-linecap="round" stroke-linejoin="round"/>
<path d="M6.82178 191.497C6.82178 182.464 6.82178 165.183 6.82178 147.694C6.82178 118.439 30.5369 94.7233 59.7911 94.7233V94.7233C89.0453 94.7233 112.76 71.0081 112.76 41.7539L112.76 15.334" stroke="#0082E8" stroke-width="2" stroke-linecap="round" stroke-linejoin="round"/>
<path d="M6.82175 196.313L13.6436 189.491H-5.91166e-05L6.82175 196.313Z" fill="#0082E8"/>
<path d="M112.76 196.313L119.582 189.491H105.939L112.76 196.313Z" fill="#0082E8"/>
<path d="M218.699 196.313L225.521 189.491H211.877L218.699 196.313Z" fill="#0082E8"/>
<path d="M323.033 196.313L329.854 189.491H316.211L323.033 196.313Z" fill="#0082E8"/>
</svg>
